<?xml version="1.0" encoding="utf-8"?>
<svg xmlns="http://www.w3.org/2000/svg" xmlns:xlink="http://www.w3.org/1999/xlink" width="600" height="600" viewBox="0 0 2400 2400">
<defs>
  <clipPath id="clip580">
    <rect x="0" y="0" width="2400" height="2400"/>
  </clipPath>
</defs>
<path clip-path="url(#clip580)" d="
M0 2400 L2400 2400 L2400 0 L0 0  Z
  " fill="#ffffff" fill-rule="evenodd" fill-opacity="1"/>
<defs>
  <clipPath id="clip581">
    <rect x="480" y="240" width="1681" height="1681"/>
  </clipPath>
</defs>
<path clip-path="url(#clip580)" d="
M243.14 2174.14 L2352.76 2174.14 L2352.76 153.712 L243.14 153.712  Z
  " fill="#ffffff" fill-rule="evenodd" fill-opacity="1"/>
<defs>
  <clipPath id="clip582">
    <rect x="243" y="153" width="2111" height="2021"/>
  </clipPath>
</defs>
<polyline clip-path="url(#clip582)" style="stroke:#000000; stroke-linecap:butt; stroke-linejoin:round; stroke-width:2; stroke-opacity:0.1; fill:none" points="
  298.858,2174.14 298.858,153.712 
  "/>
<polyline clip-path="url(#clip582)" style="stroke:#000000; stroke-linecap:butt; stroke-linejoin:round; stroke-width:2; stroke-opacity:0.1; fill:none" points="
  697.696,2174.14 697.696,153.712 
  "/>
<polyline clip-path="url(#clip582)" style="stroke:#000000; stroke-linecap:butt; stroke-linejoin:round; stroke-width:2; stroke-opacity:0.1; fill:none" points="
  1096.53,2174.14 1096.53,153.712 
  "/>
<polyline clip-path="url(#clip582)" style="stroke:#000000; stroke-linecap:butt; stroke-linejoin:round; stroke-width:2; stroke-opacity:0.1; fill:none" points="
  1495.37,2174.14 1495.37,153.712 
  "/>
<polyline clip-path="url(#clip582)" style="stroke:#000000; stroke-linecap:butt; stroke-linejoin:round; stroke-width:2; stroke-opacity:0.1; fill:none" points="
  1894.21,2174.14 1894.21,153.712 
  "/>
<polyline clip-path="url(#clip582)" style="stroke:#000000; stroke-linecap:butt; stroke-linejoin:round; stroke-width:2; stroke-opacity:0.1; fill:none" points="
  2293.05,2174.14 2293.05,153.712 
  "/>
<polyline clip-path="url(#clip580)" style="stroke:#000000; stroke-linecap:butt; stroke-linejoin:round; stroke-width:4; stroke-opacity:1; fill:none" points="
  243.14,2174.14 2352.76,2174.14 
  "/>
<polyline clip-path="url(#clip580)" style="stroke:#000000; stroke-linecap:butt; stroke-linejoin:round; stroke-width:4; stroke-opacity:1; fill:none" points="
  298.858,2174.14 298.858,2155.24 
  "/>
<polyline clip-path="url(#clip580)" style="stroke:#000000; stroke-linecap:butt; stroke-linejoin:round; stroke-width:4; stroke-opacity:1; fill:none" points="
  697.696,2174.14 697.696,2155.24 
  "/>
<polyline clip-path="url(#clip580)" style="stroke:#000000; stroke-linecap:butt; stroke-linejoin:round; stroke-width:4; stroke-opacity:1; fill:none" points="
  1096.53,2174.14 1096.53,2155.24 
  "/>
<polyline clip-path="url(#clip580)" style="stroke:#000000; stroke-linecap:butt; stroke-linejoin:round; stroke-width:4; stroke-opacity:1; fill:none" points="
  1495.37,2174.14 1495.37,2155.24 
  "/>
<polyline clip-path="url(#clip580)" style="stroke:#000000; stroke-linecap:butt; stroke-linejoin:round; stroke-width:4; stroke-opacity:1; fill:none" points="
  1894.21,2174.14 1894.21,2155.24 
  "/>
<polyline clip-path="url(#clip580)" style="stroke:#000000; stroke-linecap:butt; stroke-linejoin:round; stroke-width:4; stroke-opacity:1; fill:none" points="
  2293.05,2174.14 2293.05,2155.24 
  "/>
<path clip-path="url(#clip580)" d="M298.858 2205.06 Q295.247 2205.06 293.418 2208.62 Q291.613 2212.16 291.613 2219.29 Q291.613 2226.4 293.418 2229.97 Q295.247 2233.51 298.858 2233.51 Q302.492 2233.51 304.298 2229.97 Q306.126 2226.4 306.126 2219.29 Q306.126 2212.16 304.298 2208.62 Q302.492 2205.06 298.858 2205.06 M298.858 2201.35 Q304.668 2201.35 307.724 2205.96 Q310.802 2210.54 310.802 2219.29 Q310.802 2228.02 307.724 2232.63 Q304.668 2237.21 298.858 2237.21 Q293.048 2237.21 289.969 2232.63 Q286.913 2228.02 286.913 2219.29 Q286.913 2210.54 289.969 2205.96 Q293.048 2201.35 298.858 2201.35 Z" fill="#000000" fill-rule="evenodd" fill-opacity="1" /><path clip-path="url(#clip580)" d="M657.303 2232.6 L664.942 2232.6 L664.942 2206.24 L656.632 2207.91 L656.632 2203.65 L664.896 2201.98 L669.571 2201.98 L669.571 2232.6 L677.21 2232.6 L677.21 2236.54 L657.303 2236.54 L657.303 2232.6 Z" fill="#000000" fill-rule="evenodd" fill-opacity="1" /><path clip-path="url(#clip580)" d="M696.655 2205.06 Q693.044 2205.06 691.215 2208.62 Q689.409 2212.16 689.409 2219.29 Q689.409 2226.4 691.215 2229.97 Q693.044 2233.51 696.655 2233.51 Q700.289 2233.51 702.094 2229.97 Q703.923 2226.4 703.923 2219.29 Q703.923 2212.16 702.094 2208.62 Q700.289 2205.06 696.655 2205.06 M696.655 2201.35 Q702.465 2201.35 705.52 2205.96 Q708.599 2210.54 708.599 2219.29 Q708.599 2228.02 705.52 2232.63 Q702.465 2237.21 696.655 2237.21 Q690.844 2237.21 687.766 2232.63 Q684.71 2228.02 684.71 2219.29 Q684.71 2210.54 687.766 2205.96 Q690.844 2201.35 696.655 2201.35 Z" fill="#000000" fill-rule="evenodd" fill-opacity="1" /><path clip-path="url(#clip580)" d="M726.816 2205.06 Q723.205 2205.06 721.377 2208.62 Q719.571 2212.16 719.571 2219.29 Q719.571 2226.4 721.377 2229.97 Q723.205 2233.51 726.816 2233.51 Q730.451 2233.51 732.256 2229.97 Q734.085 2226.4 734.085 2219.29 Q734.085 2212.16 732.256 2208.62 Q730.451 2205.06 726.816 2205.06 M726.816 2201.35 Q732.627 2201.35 735.682 2205.96 Q738.761 2210.54 738.761 2219.29 Q738.761 2228.02 735.682 2232.63 Q732.627 2237.21 726.816 2237.21 Q721.006 2237.21 717.928 2232.63 Q714.872 2228.02 714.872 2219.29 Q714.872 2210.54 717.928 2205.96 Q721.006 2201.35 726.816 2201.35 Z" fill="#000000" fill-rule="evenodd" fill-opacity="1" /><path clip-path="url(#clip580)" d="M1060.23 2232.6 L1076.55 2232.6 L1076.55 2236.54 L1054.6 2236.54 L1054.6 2232.6 Q1057.26 2229.85 1061.85 2225.22 Q1066.45 2220.57 1067.63 2219.23 Q1069.88 2216.7 1070.76 2214.97 Q1071.66 2213.21 1071.66 2211.52 Q1071.66 2208.76 1069.72 2207.03 Q1067.8 2205.29 1064.69 2205.29 Q1062.5 2205.29 1060.04 2206.05 Q1057.61 2206.82 1054.83 2208.37 L1054.83 2203.65 Q1057.66 2202.51 1060.11 2201.93 Q1062.56 2201.35 1064.6 2201.35 Q1069.97 2201.35 1073.17 2204.04 Q1076.36 2206.73 1076.36 2211.22 Q1076.36 2213.35 1075.55 2215.27 Q1074.76 2217.16 1072.66 2219.76 Q1072.08 2220.43 1068.98 2223.65 Q1065.88 2226.84 1060.23 2232.6 Z" fill="#000000" fill-rule="evenodd" fill-opacity="1" /><path clip-path="url(#clip580)" d="M1096.36 2205.06 Q1092.75 2205.06 1090.92 2208.62 Q1089.12 2212.16 1089.12 2219.29 Q1089.12 2226.4 1090.92 2229.97 Q1092.75 2233.51 1096.36 2233.51 Q1100 2233.51 1101.8 2229.97 Q1103.63 2226.4 1103.63 2219.29 Q1103.63 2212.16 1101.8 2208.62 Q1100 2205.06 1096.36 2205.06 M1096.36 2201.35 Q1102.17 2201.35 1105.23 2205.96 Q1108.31 2210.54 1108.31 2219.29 Q1108.31 2228.02 1105.23 2232.63 Q1102.17 2237.21 1096.36 2237.21 Q1090.55 2237.21 1087.47 2232.63 Q1084.42 2228.02 1084.42 2219.29 Q1084.42 2210.54 1087.47 2205.96 Q1090.55 2201.35 1096.36 2201.35 Z" fill="#000000" fill-rule="evenodd" fill-opacity="1" /><path clip-path="url(#clip580)" d="M1126.52 2205.06 Q1122.91 2205.06 1121.08 2208.62 Q1119.28 2212.16 1119.28 2219.29 Q1119.28 2226.4 1121.08 2229.97 Q1122.91 2233.51 1126.52 2233.51 Q1130.16 2233.51 1131.96 2229.97 Q1133.79 2226.4 1133.79 2219.29 Q1133.79 2212.16 1131.96 2208.62 Q1130.16 2205.06 1126.52 2205.06 M1126.52 2201.35 Q1132.33 2201.35 1135.39 2205.96 Q1138.47 2210.54 1138.47 2219.29 Q1138.47 2228.02 1135.39 2232.63 Q1132.33 2237.21 1126.52 2237.21 Q1120.71 2237.21 1117.63 2232.63 Q1114.58 2228.02 1114.58 2219.29 Q1114.58 2210.54 1117.63 2205.96 Q1120.71 2201.35 1126.52 2201.35 Z" fill="#000000" fill-rule="evenodd" fill-opacity="1" /><path clip-path="url(#clip580)" d="M1469.13 2217.91 Q1472.49 2218.62 1474.37 2220.89 Q1476.26 2223.16 1476.26 2226.49 Q1476.26 2231.61 1472.75 2234.41 Q1469.23 2237.21 1462.75 2237.21 Q1460.57 2237.21 1458.26 2236.77 Q1455.96 2236.35 1453.51 2235.5 L1453.51 2230.98 Q1455.45 2232.12 1457.77 2232.7 Q1460.08 2233.28 1462.61 2233.28 Q1467.01 2233.28 1469.3 2231.54 Q1471.61 2229.8 1471.61 2226.49 Q1471.61 2223.44 1469.46 2221.73 Q1467.33 2219.99 1463.51 2219.99 L1459.48 2219.99 L1459.48 2216.15 L1463.69 2216.15 Q1467.14 2216.15 1468.97 2214.78 Q1470.8 2213.39 1470.8 2210.8 Q1470.8 2208.14 1468.9 2206.73 Q1467.03 2205.29 1463.51 2205.29 Q1461.59 2205.29 1459.39 2205.71 Q1457.19 2206.12 1454.55 2207 L1454.55 2202.84 Q1457.21 2202.1 1459.53 2201.73 Q1461.87 2201.35 1463.93 2201.35 Q1469.25 2201.35 1472.35 2203.79 Q1475.45 2206.19 1475.45 2210.31 Q1475.45 2213.18 1473.81 2215.17 Q1472.17 2217.14 1469.13 2217.91 Z" fill="#000000" fill-rule="evenodd" fill-opacity="1" /><path clip-path="url(#clip580)" d="M1495.13 2205.06 Q1491.52 2205.06 1489.69 2208.62 Q1487.88 2212.16 1487.88 2219.29 Q1487.88 2226.4 1489.69 2229.97 Q1491.52 2233.51 1495.13 2233.51 Q1498.76 2233.51 1500.57 2229.97 Q1502.4 2226.4 1502.4 2219.29 Q1502.4 2212.16 1500.57 2208.62 Q1498.76 2205.06 1495.13 2205.06 M1495.13 2201.35 Q1500.94 2201.35 1504 2205.96 Q1507.07 2210.54 1507.07 2219.29 Q1507.07 2228.02 1504 2232.63 Q1500.94 2237.21 1495.13 2237.21 Q1489.32 2237.21 1486.24 2232.63 Q1483.19 2228.02 1483.19 2219.29 Q1483.19 2210.54 1486.24 2205.96 Q1489.32 2201.35 1495.13 2201.35 Z" fill="#000000" fill-rule="evenodd" fill-opacity="1" /><path clip-path="url(#clip580)" d="M1525.29 2205.06 Q1521.68 2205.06 1519.85 2208.62 Q1518.05 2212.16 1518.05 2219.29 Q1518.05 2226.4 1519.85 2229.97 Q1521.68 2233.51 1525.29 2233.51 Q1528.93 2233.51 1530.73 2229.97 Q1532.56 2226.4 1532.56 2219.29 Q1532.56 2212.16 1530.73 2208.62 Q1528.93 2205.06 1525.29 2205.06 M1525.29 2201.35 Q1531.1 2201.35 1534.16 2205.96 Q1537.24 2210.54 1537.24 2219.29 Q1537.24 2228.02 1534.16 2232.63 Q1531.1 2237.21 1525.29 2237.21 Q1519.48 2237.21 1516.4 2232.63 Q1513.35 2228.02 1513.35 2219.29 Q1513.35 2210.54 1516.4 2205.96 Q1519.48 2201.35 1525.29 2201.35 Z" fill="#000000" fill-rule="evenodd" fill-opacity="1" /><path clip-path="url(#clip580)" d="M1867.3 2206.05 L1855.5 2224.5 L1867.3 2224.5 L1867.3 2206.05 M1866.07 2201.98 L1871.95 2201.98 L1871.95 2224.5 L1876.89 2224.5 L1876.89 2228.39 L1871.95 2228.39 L1871.95 2236.54 L1867.3 2236.54 L1867.3 2228.39 L1851.7 2228.39 L1851.7 2223.88 L1866.07 2201.98 Z" fill="#000000" fill-rule="evenodd" fill-opacity="1" /><path clip-path="url(#clip580)" d="M1894.62 2205.06 Q1891.01 2205.06 1889.18 2208.62 Q1887.37 2212.16 1887.37 2219.29 Q1887.37 2226.4 1889.18 2229.97 Q1891.01 2233.51 1894.62 2233.51 Q1898.25 2233.51 1900.06 2229.97 Q1901.88 2226.4 1901.88 2219.29 Q1901.88 2212.16 1900.06 2208.62 Q1898.25 2205.06 1894.62 2205.06 M1894.62 2201.35 Q1900.43 2201.35 1903.48 2205.96 Q1906.56 2210.54 1906.56 2219.29 Q1906.56 2228.02 1903.48 2232.63 Q1900.43 2237.21 1894.62 2237.21 Q1888.81 2237.21 1885.73 2232.63 Q1882.67 2228.02 1882.67 2219.29 Q1882.67 2210.54 1885.73 2205.96 Q1888.81 2201.35 1894.62 2201.35 Z" fill="#000000" fill-rule="evenodd" fill-opacity="1" /><path clip-path="url(#clip580)" d="M1924.78 2205.06 Q1921.17 2205.06 1919.34 2208.62 Q1917.53 2212.16 1917.53 2219.29 Q1917.53 2226.4 1919.34 2229.97 Q1921.17 2233.51 1924.78 2233.51 Q1928.41 2233.51 1930.22 2229.97 Q1932.05 2226.4 1932.05 2219.29 Q1932.05 2212.16 1930.22 2208.62 Q1928.41 2205.06 1924.78 2205.06 M1924.78 2201.35 Q1930.59 2201.35 1933.64 2205.96 Q1936.72 2210.54 1936.72 2219.29 Q1936.72 2228.02 1933.64 2232.63 Q1930.59 2237.21 1924.78 2237.21 Q1918.97 2237.21 1915.89 2232.63 Q1912.83 2228.02 1912.83 2219.29 Q1912.83 2210.54 1915.89 2205.96 Q1918.97 2201.35 1924.78 2201.35 Z" fill="#000000" fill-rule="evenodd" fill-opacity="1" /><path clip-path="url(#clip580)" d="M2252.67 2201.98 L2271.02 2201.98 L2271.02 2205.92 L2256.95 2205.92 L2256.95 2214.39 Q2257.97 2214.04 2258.99 2213.88 Q2260.01 2213.69 2261.02 2213.69 Q2266.81 2213.69 2270.19 2216.86 Q2273.57 2220.04 2273.57 2225.45 Q2273.57 2231.03 2270.1 2234.13 Q2266.63 2237.21 2260.31 2237.21 Q2258.13 2237.21 2255.86 2236.84 Q2253.62 2236.47 2251.21 2235.73 L2251.21 2231.03 Q2253.29 2232.16 2255.52 2232.72 Q2257.74 2233.28 2260.21 2233.28 Q2264.22 2233.28 2266.56 2231.17 Q2268.89 2229.06 2268.89 2225.45 Q2268.89 2221.84 2266.56 2219.73 Q2264.22 2217.63 2260.21 2217.63 Q2258.34 2217.63 2256.46 2218.04 Q2254.61 2218.46 2252.67 2219.34 L2252.67 2201.98 Z" fill="#000000" fill-rule="evenodd" fill-opacity="1" /><path clip-path="url(#clip580)" d="M2292.78 2205.06 Q2289.17 2205.06 2287.34 2208.62 Q2285.54 2212.16 2285.54 2219.29 Q2285.54 2226.4 2287.34 2229.97 Q2289.17 2233.51 2292.78 2233.51 Q2296.42 2233.51 2298.22 2229.97 Q2300.05 2226.4 2300.05 2219.29 Q2300.05 2212.16 2298.22 2208.62 Q2296.42 2205.06 2292.78 2205.06 M2292.78 2201.35 Q2298.59 2201.35 2301.65 2205.96 Q2304.73 2210.54 2304.73 2219.29 Q2304.73 2228.02 2301.65 2232.63 Q2298.59 2237.21 2292.78 2237.21 Q2286.97 2237.21 2283.89 2232.63 Q2280.84 2228.02 2280.84 2219.29 Q2280.84 2210.54 2283.89 2205.96 Q2286.97 2201.35 2292.78 2201.35 Z" fill="#000000" fill-rule="evenodd" fill-opacity="1" /><path clip-path="url(#clip580)" d="M2322.95 2205.06 Q2319.33 2205.06 2317.51 2208.62 Q2315.7 2212.16 2315.7 2219.29 Q2315.7 2226.4 2317.51 2229.97 Q2319.33 2233.51 2322.95 2233.51 Q2326.58 2233.51 2328.39 2229.97 Q2330.21 2226.4 2330.21 2219.29 Q2330.21 2212.16 2328.39 2208.62 Q2326.58 2205.06 2322.95 2205.06 M2322.95 2201.35 Q2328.76 2201.35 2331.81 2205.96 Q2334.89 2210.54 2334.89 2219.29 Q2334.89 2228.02 2331.81 2232.63 Q2328.76 2237.21 2322.95 2237.21 Q2317.14 2237.21 2314.06 2232.63 Q2311 2228.02 2311 2219.29 Q2311 2210.54 2314.06 2205.96 Q2317.14 2201.35 2322.95 2201.35 Z" fill="#000000" fill-rule="evenodd" fill-opacity="1" /><path clip-path="url(#clip580)" d="M1185.96 2271.48 L1216.01 2271.48 L1216.01 2276.89 L1192.39 2276.89 L1192.39 2290.96 L1215.02 2290.96 L1215.02 2296.37 L1192.39 2296.37 L1192.39 2313.59 L1216.58 2313.59 L1216.58 2319 L1185.96 2319 L1185.96 2271.48 Z" fill="#000000" fill-rule="evenodd" fill-opacity="1" /><path clip-path="url(#clip580)" d="M1232.56 2313.66 L1232.56 2332.56 L1226.67 2332.56 L1226.67 2283.36 L1232.56 2283.36 L1232.56 2288.77 Q1234.4 2285.58 1237.2 2284.06 Q1240.04 2282.5 1243.95 2282.5 Q1250.44 2282.5 1254.49 2287.65 Q1258.56 2292.81 1258.56 2301.21 Q1258.56 2309.61 1254.49 2314.77 Q1250.44 2319.93 1243.95 2319.93 Q1240.04 2319.93 1237.2 2318.4 Q1234.4 2316.84 1232.56 2313.66 M1252.48 2301.21 Q1252.48 2294.75 1249.81 2291.09 Q1247.17 2287.4 1242.52 2287.4 Q1237.87 2287.4 1235.2 2291.09 Q1232.56 2294.75 1232.56 2301.21 Q1232.56 2307.67 1235.2 2311.36 Q1237.87 2315.03 1242.52 2315.03 Q1247.17 2315.03 1249.81 2311.36 Q1252.48 2307.67 1252.48 2301.21 Z" fill="#000000" fill-rule="evenodd" fill-opacity="1" /><path clip-path="url(#clip580)" d="M1282.08 2287.46 Q1277.37 2287.46 1274.63 2291.15 Q1271.9 2294.81 1271.9 2301.21 Q1271.9 2307.61 1274.6 2311.3 Q1277.34 2314.96 1282.08 2314.96 Q1286.76 2314.96 1289.5 2311.27 Q1292.23 2307.58 1292.23 2301.21 Q1292.23 2294.88 1289.5 2291.19 Q1286.76 2287.46 1282.08 2287.46 M1282.08 2282.5 Q1289.72 2282.5 1294.08 2287.46 Q1298.44 2292.43 1298.44 2301.21 Q1298.44 2309.96 1294.08 2314.96 Q1289.72 2319.93 1282.08 2319.93 Q1274.41 2319.93 1270.05 2314.96 Q1265.72 2309.96 1265.72 2301.21 Q1265.72 2292.43 1270.05 2287.46 Q1274.41 2282.5 1282.08 2282.5 Z" fill="#000000" fill-rule="evenodd" fill-opacity="1" /><path clip-path="url(#clip580)" d="M1333.8 2284.72 L1333.8 2290.2 Q1331.32 2288.83 1328.81 2288.16 Q1326.32 2287.46 1323.78 2287.46 Q1318.08 2287.46 1314.93 2291.09 Q1311.78 2294.69 1311.78 2301.21 Q1311.78 2307.74 1314.93 2311.36 Q1318.08 2314.96 1323.78 2314.96 Q1326.32 2314.96 1328.81 2314.29 Q1331.32 2313.59 1333.8 2312.22 L1333.8 2317.64 Q1331.35 2318.78 1328.71 2319.35 Q1326.1 2319.93 1323.14 2319.93 Q1315.09 2319.93 1310.35 2314.87 Q1305.6 2309.81 1305.6 2301.21 Q1305.6 2292.49 1310.38 2287.49 Q1315.18 2282.5 1323.52 2282.5 Q1326.23 2282.5 1328.81 2283.07 Q1331.38 2283.61 1333.8 2284.72 Z" fill="#000000" fill-rule="evenodd" fill-opacity="1" /><path clip-path="url(#clip580)" d="M1373.62 2297.49 L1373.62 2319 L1367.76 2319 L1367.76 2297.68 Q1367.76 2292.62 1365.79 2290.1 Q1363.82 2287.59 1359.87 2287.59 Q1355.13 2287.59 1352.39 2290.61 Q1349.65 2293.64 1349.65 2298.86 L1349.65 2319 L1343.77 2319 L1343.77 2269.48 L1349.65 2269.48 L1349.65 2288.89 Q1351.75 2285.68 1354.59 2284.09 Q1357.45 2282.5 1361.18 2282.5 Q1367.32 2282.5 1370.47 2286.32 Q1373.62 2290.1 1373.62 2297.49 Z" fill="#000000" fill-rule="evenodd" fill-opacity="1" /><path clip-path="url(#clip580)" d="M1408.03 2284.41 L1408.03 2289.94 Q1405.54 2288.67 1402.87 2288.03 Q1400.2 2287.4 1397.33 2287.4 Q1392.97 2287.4 1390.78 2288.73 Q1388.61 2290.07 1388.61 2292.75 Q1388.61 2294.78 1390.17 2295.96 Q1391.73 2297.11 1396.44 2298.16 L1398.45 2298.6 Q1404.69 2299.94 1407.29 2302.39 Q1409.94 2304.81 1409.94 2309.17 Q1409.94 2314.13 1405.99 2317.03 Q1402.08 2319.93 1395.2 2319.93 Q1392.34 2319.93 1389.22 2319.35 Q1386.13 2318.81 1382.69 2317.7 L1382.69 2311.65 Q1385.94 2313.34 1389.09 2314.2 Q1392.24 2315.03 1395.33 2315.03 Q1399.47 2315.03 1401.69 2313.62 Q1403.92 2312.19 1403.92 2309.61 Q1403.92 2307.23 1402.3 2305.95 Q1400.71 2304.68 1395.26 2303.5 L1393.23 2303.03 Q1387.78 2301.88 1385.37 2299.52 Q1382.95 2297.14 1382.95 2293 Q1382.95 2287.97 1386.51 2285.23 Q1390.08 2282.5 1396.63 2282.5 Q1399.88 2282.5 1402.74 2282.97 Q1405.61 2283.45 1408.03 2284.41 Z" fill="#000000" fill-rule="evenodd" fill-opacity="1" /><polyline clip-path="url(#clip582)" style="stroke:#000000; stroke-linecap:butt; stroke-linejoin:round; stroke-width:2; stroke-opacity:0.1; fill:none" points="
  243.14,2146.73 2352.76,2146.73 
  "/>
<polyline clip-path="url(#clip582)" style="stroke:#000000; stroke-linecap:butt; stroke-linejoin:round; stroke-width:2; stroke-opacity:0.1; fill:none" points="
  243.14,1668.28 2352.76,1668.28 
  "/>
<polyline clip-path="url(#clip582)" style="stroke:#000000; stroke-linecap:butt; stroke-linejoin:round; stroke-width:2; stroke-opacity:0.1; fill:none" points="
  243.14,1189.84 2352.76,1189.84 
  "/>
<polyline clip-path="url(#clip582)" style="stroke:#000000; stroke-linecap:butt; stroke-linejoin:round; stroke-width:2; stroke-opacity:0.1; fill:none" points="
  243.14,711.392 2352.76,711.392 
  "/>
<polyline clip-path="url(#clip582)" style="stroke:#000000; stroke-linecap:butt; stroke-linejoin:round; stroke-width:2; stroke-opacity:0.1; fill:none" points="
  243.14,232.947 2352.76,232.947 
  "/>
<polyline clip-path="url(#clip580)" style="stroke:#000000; stroke-linecap:butt; stroke-linejoin:round; stroke-width:4; stroke-opacity:1; fill:none" points="
  243.14,2174.14 243.14,153.712 
  "/>
<polyline clip-path="url(#clip580)" style="stroke:#000000; stroke-linecap:butt; stroke-linejoin:round; stroke-width:4; stroke-opacity:1; fill:none" points="
  243.14,2146.73 262.038,2146.73 
  "/>
<polyline clip-path="url(#clip580)" style="stroke:#000000; stroke-linecap:butt; stroke-linejoin:round; stroke-width:4; stroke-opacity:1; fill:none" points="
  243.14,1668.28 262.038,1668.28 
  "/>
<polyline clip-path="url(#clip580)" style="stroke:#000000; stroke-linecap:butt; stroke-linejoin:round; stroke-width:4; stroke-opacity:1; fill:none" points="
  243.14,1189.84 262.038,1189.84 
  "/>
<polyline clip-path="url(#clip580)" style="stroke:#000000; stroke-linecap:butt; stroke-linejoin:round; stroke-width:4; stroke-opacity:1; fill:none" points="
  243.14,711.392 262.038,711.392 
  "/>
<polyline clip-path="url(#clip580)" style="stroke:#000000; stroke-linecap:butt; stroke-linejoin:round; stroke-width:4; stroke-opacity:1; fill:none" points="
  243.14,232.947 262.038,232.947 
  "/>
<path clip-path="url(#clip580)" d="M149.965 2132.53 Q146.353 2132.53 144.525 2136.09 Q142.719 2139.63 142.719 2146.76 Q142.719 2153.87 144.525 2157.43 Q146.353 2160.98 149.965 2160.98 Q153.599 2160.98 155.404 2157.43 Q157.233 2153.87 157.233 2146.76 Q157.233 2139.63 155.404 2136.09 Q153.599 2132.53 149.965 2132.53 M149.965 2128.82 Q155.775 2128.82 158.83 2133.43 Q161.909 2138.01 161.909 2146.76 Q161.909 2155.49 158.83 2160.1 Q155.775 2164.68 149.965 2164.68 Q144.154 2164.68 141.076 2160.1 Q138.02 2155.49 138.02 2146.76 Q138.02 2138.01 141.076 2133.43 Q144.154 2128.82 149.965 2128.82 Z" fill="#000000" fill-rule="evenodd" fill-opacity="1" /><path clip-path="url(#clip580)" d="M170.126 2158.13 L175.011 2158.13 L175.011 2164.01 L170.126 2164.01 L170.126 2158.13 Z" fill="#000000" fill-rule="evenodd" fill-opacity="1" /><path clip-path="url(#clip580)" d="M195.196 2132.53 Q191.585 2132.53 189.756 2136.09 Q187.95 2139.63 187.95 2146.76 Q187.95 2153.87 189.756 2157.43 Q191.585 2160.98 195.196 2160.98 Q198.83 2160.98 200.636 2157.43 Q202.464 2153.87 202.464 2146.76 Q202.464 2139.63 200.636 2136.09 Q198.83 2132.53 195.196 2132.53 M195.196 2128.82 Q201.006 2128.82 204.061 2133.43 Q207.14 2138.01 207.14 2146.76 Q207.14 2155.49 204.061 2160.1 Q201.006 2164.68 195.196 2164.68 Q189.386 2164.68 186.307 2160.1 Q183.251 2155.49 183.251 2146.76 Q183.251 2138.01 186.307 2133.43 Q189.386 2128.82 195.196 2128.82 Z" fill="#000000" fill-rule="evenodd" fill-opacity="1" /><path clip-path="url(#clip580)" d="M150.96 1654.08 Q147.349 1654.08 145.52 1657.65 Q143.715 1661.19 143.715 1668.32 Q143.715 1675.42 145.52 1678.99 Q147.349 1682.53 150.96 1682.53 Q154.594 1682.53 156.4 1678.99 Q158.228 1675.42 158.228 1668.32 Q158.228 1661.19 156.4 1657.65 Q154.594 1654.08 150.96 1654.08 M150.96 1650.38 Q156.77 1650.38 159.826 1654.98 Q162.904 1659.57 162.904 1668.32 Q162.904 1677.04 159.826 1681.65 Q156.77 1686.23 150.96 1686.23 Q145.15 1686.23 142.071 1681.65 Q139.016 1677.04 139.016 1668.32 Q139.016 1659.57 142.071 1654.98 Q145.15 1650.38 150.96 1650.38 Z" fill="#000000" fill-rule="evenodd" fill-opacity="1" /><path clip-path="url(#clip580)" d="M171.122 1679.68 L176.006 1679.68 L176.006 1685.56 L171.122 1685.56 L171.122 1679.68 Z" fill="#000000" fill-rule="evenodd" fill-opacity="1" /><path clip-path="url(#clip580)" d="M186.237 1651 L204.594 1651 L204.594 1654.94 L190.52 1654.94 L190.52 1663.41 Q191.538 1663.06 192.557 1662.9 Q193.575 1662.72 194.594 1662.72 Q200.381 1662.72 203.761 1665.89 Q207.14 1669.06 207.14 1674.48 Q207.14 1680.05 203.668 1683.16 Q200.196 1686.23 193.876 1686.23 Q191.7 1686.23 189.432 1685.86 Q187.187 1685.49 184.779 1684.75 L184.779 1680.05 Q186.862 1681.19 189.085 1681.74 Q191.307 1682.3 193.784 1682.3 Q197.788 1682.3 200.126 1680.19 Q202.464 1678.09 202.464 1674.48 Q202.464 1670.86 200.126 1668.76 Q197.788 1666.65 193.784 1666.65 Q191.909 1666.65 190.034 1667.07 Q188.182 1667.48 186.237 1668.36 L186.237 1651 Z" fill="#000000" fill-rule="evenodd" fill-opacity="1" /><path clip-path="url(#clip580)" d="M140.775 1203.18 L148.414 1203.18 L148.414 1176.82 L140.103 1178.48 L140.103 1174.22 L148.367 1172.56 L153.043 1172.56 L153.043 1203.18 L160.682 1203.18 L160.682 1207.12 L140.775 1207.12 L140.775 1203.18 Z" fill="#000000" fill-rule="evenodd" fill-opacity="1" /><path clip-path="url(#clip580)" d="M170.126 1201.24 L175.011 1201.24 L175.011 1207.12 L170.126 1207.12 L170.126 1201.24 Z" fill="#000000" fill-rule="evenodd" fill-opacity="1" /><path clip-path="url(#clip580)" d="M195.196 1175.64 Q191.585 1175.64 189.756 1179.2 Q187.95 1182.74 187.95 1189.87 Q187.95 1196.98 189.756 1200.54 Q191.585 1204.09 195.196 1204.09 Q198.83 1204.09 200.636 1200.54 Q202.464 1196.98 202.464 1189.87 Q202.464 1182.74 200.636 1179.2 Q198.83 1175.64 195.196 1175.64 M195.196 1171.93 Q201.006 1171.93 204.061 1176.54 Q207.14 1181.12 207.14 1189.87 Q207.14 1198.6 204.061 1203.21 Q201.006 1207.79 195.196 1207.79 Q189.386 1207.79 186.307 1203.21 Q183.251 1198.6 183.251 1189.87 Q183.251 1181.12 186.307 1176.54 Q189.386 1171.93 195.196 1171.93 Z" fill="#000000" fill-rule="evenodd" fill-opacity="1" /><path clip-path="url(#clip580)" d="M141.77 724.737 L149.409 724.737 L149.409 698.371 L141.099 700.038 L141.099 695.779 L149.363 694.112 L154.039 694.112 L154.039 724.737 L161.677 724.737 L161.677 728.672 L141.77 728.672 L141.77 724.737 Z" fill="#000000" fill-rule="evenodd" fill-opacity="1" /><path clip-path="url(#clip580)" d="M171.122 722.792 L176.006 722.792 L176.006 728.672 L171.122 728.672 L171.122 722.792 Z" fill="#000000" fill-rule="evenodd" fill-opacity="1" /><path clip-path="url(#clip580)" d="M186.237 694.112 L204.594 694.112 L204.594 698.047 L190.52 698.047 L190.52 706.519 Q191.538 706.172 192.557 706.01 Q193.575 705.825 194.594 705.825 Q200.381 705.825 203.761 708.996 Q207.14 712.168 207.14 717.584 Q207.14 723.163 203.668 726.265 Q200.196 729.343 193.876 729.343 Q191.7 729.343 189.432 728.973 Q187.187 728.603 184.779 727.862 L184.779 723.163 Q186.862 724.297 189.085 724.853 Q191.307 725.408 193.784 725.408 Q197.788 725.408 200.126 723.302 Q202.464 721.195 202.464 717.584 Q202.464 713.973 200.126 711.867 Q197.788 709.76 193.784 709.76 Q191.909 709.76 190.034 710.177 Q188.182 710.593 186.237 711.473 L186.237 694.112 Z" fill="#000000" fill-rule="evenodd" fill-opacity="1" /><path clip-path="url(#clip580)" d="M143.992 246.291 L160.312 246.291 L160.312 250.227 L138.367 250.227 L138.367 246.291 Q141.029 243.537 145.613 238.907 Q150.219 234.254 151.4 232.912 Q153.645 230.389 154.525 228.653 Q155.427 226.893 155.427 225.204 Q155.427 222.449 153.483 220.713 Q151.562 218.977 148.46 218.977 Q146.261 218.977 143.807 219.741 Q141.377 220.505 138.599 222.055 L138.599 217.333 Q141.423 216.199 143.877 215.62 Q146.33 215.042 148.367 215.042 Q153.738 215.042 156.932 217.727 Q160.127 220.412 160.127 224.903 Q160.127 227.032 159.316 228.954 Q158.529 230.852 156.423 233.444 Q155.844 234.116 152.742 237.333 Q149.64 240.528 143.992 246.291 Z" fill="#000000" fill-rule="evenodd" fill-opacity="1" /><path clip-path="url(#clip580)" d="M170.126 244.347 L175.011 244.347 L175.011 250.227 L170.126 250.227 L170.126 244.347 Z" fill="#000000" fill-rule="evenodd" fill-opacity="1" /><path clip-path="url(#clip580)" d="M195.196 218.745 Q191.585 218.745 189.756 222.31 Q187.95 225.852 187.95 232.981 Q187.95 240.088 189.756 243.653 Q191.585 247.194 195.196 247.194 Q198.83 247.194 200.636 243.653 Q202.464 240.088 202.464 232.981 Q202.464 225.852 200.636 222.31 Q198.83 218.745 195.196 218.745 M195.196 215.042 Q201.006 215.042 204.061 219.648 Q207.14 224.231 207.14 232.981 Q207.14 241.708 204.061 246.315 Q201.006 250.898 195.196 250.898 Q189.386 250.898 186.307 246.315 Q183.251 241.708 183.251 232.981 Q183.251 224.231 186.307 219.648 Q189.386 215.042 195.196 215.042 Z" fill="#000000" fill-rule="evenodd" fill-opacity="1" /><path clip-path="url(#clip580)" d="M40.2442 1230.62 L40.2442 1224.19 L82.3533 1224.19 L82.3533 1201.05 L87.7642 1201.05 L87.7642 1230.62 L40.2442 1230.62 Z" fill="#000000" fill-rule="evenodd" fill-opacity="1" /><path clip-path="url(#clip580)" d="M56.2221 1181.89 Q56.2221 1186.6 59.9142 1189.34 Q63.5745 1192.08 69.972 1192.08 Q76.3695 1192.08 80.0617 1189.37 Q83.7219 1186.64 83.7219 1181.89 Q83.7219 1177.21 80.0298 1174.48 Q76.3377 1171.74 69.972 1171.74 Q63.6381 1171.74 59.946 1174.48 Q56.2221 1177.21 56.2221 1181.89 M51.2568 1181.89 Q51.2568 1174.25 56.2221 1169.89 Q61.1873 1165.53 69.972 1165.53 Q78.7249 1165.53 83.7219 1169.89 Q88.6872 1174.25 88.6872 1181.89 Q88.6872 1189.56 83.7219 1193.92 Q78.7249 1198.25 69.972 1198.25 Q61.1873 1198.25 56.2221 1193.92 Q51.2568 1189.56 51.2568 1181.89 Z" fill="#000000" fill-rule="evenodd" fill-opacity="1" /><path clip-path="url(#clip580)" d="M53.1665 1133.1 L58.7047 1133.1 Q57.4316 1135.58 56.795 1138.26 Q56.1584 1140.93 56.1584 1143.79 Q56.1584 1148.15 57.4952 1150.35 Q58.832 1152.52 61.5056 1152.52 Q63.5426 1152.52 64.7203 1150.96 Q65.8661 1149.4 66.9165 1144.69 L67.3621 1142.68 Q68.6989 1136.44 71.1497 1133.83 Q73.5686 1131.19 77.9291 1131.19 Q82.8944 1131.19 85.7908 1135.14 Q88.6872 1139.05 88.6872 1145.93 Q88.6872 1148.79 88.1143 1151.91 Q87.5732 1155 86.4592 1158.44 L80.4118 1158.44 Q82.0987 1155.19 82.958 1152.04 Q83.7856 1148.89 83.7856 1145.8 Q83.7856 1141.66 82.3851 1139.43 Q80.9529 1137.21 78.3747 1137.21 Q75.9876 1137.21 74.7145 1138.83 Q73.4413 1140.42 72.2637 1145.86 L71.7862 1147.9 Q70.6404 1153.34 68.2851 1155.76 Q65.898 1158.18 61.7602 1158.18 Q56.7313 1158.18 53.9941 1154.62 Q51.2568 1151.05 51.2568 1144.49 Q51.2568 1141.25 51.7343 1138.38 Q52.2117 1135.52 53.1665 1133.1 Z" fill="#000000" fill-rule="evenodd" fill-opacity="1" /><path clip-path="url(#clip580)" d="M53.1665 1099.14 L58.7047 1099.14 Q57.4316 1101.62 56.795 1104.3 Q56.1584 1106.97 56.1584 1109.83 Q56.1584 1114.19 57.4952 1116.39 Q58.832 1118.55 61.5056 1118.55 Q63.5426 1118.55 64.7203 1116.99 Q65.8661 1115.44 66.9165 1110.72 L67.3621 1108.72 Q68.6989 1102.48 71.1497 1099.87 Q73.5686 1097.23 77.9291 1097.23 Q82.8944 1097.23 85.7908 1101.18 Q88.6872 1105.09 88.6872 1111.97 Q88.6872 1114.83 88.1143 1117.95 Q87.5732 1121.04 86.4592 1124.47 L80.4118 1124.47 Q82.0987 1121.23 82.958 1118.08 Q83.7856 1114.93 83.7856 1111.84 Q83.7856 1107.7 82.3851 1105.47 Q80.9529 1103.24 78.3747 1103.24 Q75.9876 1103.24 74.7145 1104.87 Q73.4413 1106.46 72.2637 1111.9 L71.7862 1113.94 Q70.6404 1119.38 68.2851 1121.8 Q65.898 1124.22 61.7602 1124.22 Q56.7313 1124.22 53.9941 1120.66 Q51.2568 1117.09 51.2568 1110.53 Q51.2568 1107.29 51.7343 1104.42 Q52.2117 1101.56 53.1665 1099.14 Z" fill="#000000" fill-rule="evenodd" fill-opacity="1" /><path clip-path="url(#clip580)" d="M988.58 12.096 L996.763 12.096 L996.763 65.6895 L1026.21 65.6895 L1026.21 72.576 L988.58 72.576 L988.58 12.096 Z" fill="#000000" fill-rule="evenodd" fill-opacity="1" /><path clip-path="url(#clip580)" d="M1071.83 48.0275 L1071.83 51.6733 L1037.56 51.6733 Q1038.04 59.3701 1042.17 63.421 Q1046.35 67.4314 1053.76 67.4314 Q1058.05 67.4314 1062.06 66.3781 Q1066.11 65.3249 1070.08 63.2184 L1070.08 70.267 Q1066.07 71.9684 1061.86 72.8596 Q1057.65 73.7508 1053.31 73.7508 Q1042.46 73.7508 1036.1 67.4314 Q1029.78 61.1119 1029.78 50.3365 Q1029.78 39.1965 1035.77 32.6746 Q1041.81 26.1121 1052.02 26.1121 Q1061.17 26.1121 1066.48 32.0264 Q1071.83 37.9003 1071.83 48.0275 M1064.37 45.84 Q1064.29 39.7232 1060.93 36.0774 Q1057.61 32.4315 1052.1 32.4315 Q1045.86 32.4315 1042.09 35.9558 Q1038.37 39.4801 1037.8 45.8805 L1064.37 45.84 Z" fill="#000000" fill-rule="evenodd" fill-opacity="1" /><path clip-path="url(#clip580)" d="M1104.68 49.7694 Q1095.65 49.7694 1092.16 51.8354 Q1088.68 53.9013 1088.68 58.8839 Q1088.68 62.8538 1091.27 65.2034 Q1093.9 67.5124 1098.4 67.5124 Q1104.6 67.5124 1108.33 63.1374 Q1112.09 58.7219 1112.09 51.4303 L1112.09 49.7694 L1104.68 49.7694 M1119.55 46.6907 L1119.55 72.576 L1112.09 72.576 L1112.09 65.6895 Q1109.54 69.8214 1105.73 71.8063 Q1101.92 73.7508 1096.42 73.7508 Q1089.45 73.7508 1085.32 69.8619 Q1081.22 65.9325 1081.22 59.3701 Q1081.22 51.7138 1086.33 47.825 Q1091.47 43.9361 1101.64 43.9361 L1112.09 43.9361 L1112.09 43.2069 Q1112.09 38.0623 1108.69 35.2672 Q1105.33 32.4315 1099.21 32.4315 Q1095.32 32.4315 1091.64 33.3632 Q1087.95 34.295 1084.55 36.1584 L1084.55 29.2718 Q1088.64 27.692 1092.49 26.9223 Q1096.33 26.1121 1099.98 26.1121 Q1109.82 26.1121 1114.69 31.2163 Q1119.55 36.3204 1119.55 46.6907 Z" fill="#000000" fill-rule="evenodd" fill-opacity="1" /><path clip-path="url(#clip580)" d="M1161.19 34.1734 Q1159.93 33.4443 1158.43 33.1202 Q1156.98 32.7556 1155.19 32.7556 Q1148.87 32.7556 1145.47 36.8875 Q1142.11 40.9789 1142.11 48.6757 L1142.11 72.576 L1134.62 72.576 L1134.62 27.2059 L1142.11 27.2059 L1142.11 34.2544 Q1144.46 30.1225 1148.23 28.1376 Q1151.99 26.1121 1157.38 26.1121 Q1158.15 26.1121 1159.08 26.2337 Q1160.01 26.3147 1161.15 26.5172 L1161.19 34.1734 Z" fill="#000000" fill-rule="evenodd" fill-opacity="1" /><path clip-path="url(#clip580)" d="M1205.26 45.1919 L1205.26 72.576 L1197.81 72.576 L1197.81 45.4349 Q1197.81 38.994 1195.3 35.7938 Q1192.79 32.5936 1187.76 32.5936 Q1181.73 32.5936 1178.24 36.4419 Q1174.76 40.2903 1174.76 46.9338 L1174.76 72.576 L1167.27 72.576 L1167.27 27.2059 L1174.76 27.2059 L1174.76 34.2544 Q1177.43 30.163 1181.04 28.1376 Q1184.68 26.1121 1189.42 26.1121 Q1197.24 26.1121 1201.25 30.9732 Q1205.26 35.7938 1205.26 45.1919 Z" fill="#000000" fill-rule="evenodd" fill-opacity="1" /><path clip-path="url(#clip580)" d="M1220.13 27.2059 L1227.58 27.2059 L1227.58 72.576 L1220.13 72.576 L1220.13 27.2059 M1220.13 9.54393 L1227.58 9.54393 L1227.58 18.9825 L1220.13 18.9825 L1220.13 9.54393 Z" fill="#000000" fill-rule="evenodd" fill-opacity="1" /><path clip-path="url(#clip580)" d="M1280.89 45.1919 L1280.89 72.576 L1273.44 72.576 L1273.44 45.4349 Q1273.44 38.994 1270.93 35.7938 Q1268.42 32.5936 1263.39 32.5936 Q1257.36 32.5936 1253.87 36.4419 Q1250.39 40.2903 1250.39 46.9338 L1250.39 72.576 L1242.9 72.576 L1242.9 27.2059 L1250.39 27.2059 L1250.39 34.2544 Q1253.06 30.163 1256.67 28.1376 Q1260.32 26.1121 1265.05 26.1121 Q1272.87 26.1121 1276.88 30.9732 Q1280.89 35.7938 1280.89 45.1919 Z" fill="#000000" fill-rule="evenodd" fill-opacity="1" /><path clip-path="url(#clip580)" d="M1325.62 49.3643 Q1325.62 41.2625 1322.25 36.8065 Q1318.93 32.3505 1312.9 32.3505 Q1306.9 32.3505 1303.54 36.8065 Q1300.22 41.2625 1300.22 49.3643 Q1300.22 57.4256 1303.54 61.8816 Q1306.9 66.3376 1312.9 66.3376 Q1318.93 66.3376 1322.25 61.8816 Q1325.62 57.4256 1325.62 49.3643 M1333.07 66.9452 Q1333.07 78.5308 1327.92 84.1616 Q1322.78 89.8329 1312.17 89.8329 Q1308.24 89.8329 1304.75 89.2252 Q1301.27 88.6581 1297.99 87.4428 L1297.99 80.1917 Q1301.27 81.9741 1304.47 82.8248 Q1307.67 83.6755 1310.99 83.6755 Q1318.32 83.6755 1321.97 79.8271 Q1325.62 76.0193 1325.62 68.282 L1325.62 64.5957 Q1323.31 68.6061 1319.7 70.5911 Q1316.1 72.576 1311.07 72.576 Q1302.73 72.576 1297.62 66.2161 Q1292.52 59.8562 1292.52 49.3643 Q1292.52 38.832 1297.62 32.472 Q1302.73 26.1121 1311.07 26.1121 Q1316.1 26.1121 1319.7 28.0971 Q1323.31 30.082 1325.62 34.0924 L1325.62 27.2059 L1333.07 27.2059 L1333.07 66.9452 Z" fill="#000000" fill-rule="evenodd" fill-opacity="1" /><path clip-path="url(#clip580)" d="M1420.41 16.7545 L1420.41 25.383 Q1416.27 21.5346 1411.58 19.6307 Q1406.92 17.7268 1401.65 17.7268 Q1391.28 17.7268 1385.77 24.0867 Q1380.26 30.4061 1380.26 42.3968 Q1380.26 54.3469 1385.77 60.7069 Q1391.28 67.0263 1401.65 67.0263 Q1406.92 67.0263 1411.58 65.1223 Q1416.27 63.2184 1420.41 59.3701 L1420.41 67.9175 Q1416.11 70.8341 1411.29 72.2924 Q1406.51 73.7508 1401.17 73.7508 Q1387.43 73.7508 1379.53 65.3654 Q1371.63 56.9395 1371.63 42.3968 Q1371.63 27.8135 1379.53 19.4281 Q1387.43 11.0023 1401.17 11.0023 Q1406.59 11.0023 1411.37 12.4606 Q1416.19 13.8784 1420.41 16.7545 Z" fill="#000000" fill-rule="evenodd" fill-opacity="1" /><path clip-path="url(#clip580)" d="M1431.95 54.671 L1431.95 27.2059 L1439.41 27.2059 L1439.41 54.3874 Q1439.41 60.8284 1441.92 64.0691 Q1444.43 67.2693 1449.45 67.2693 Q1455.49 67.2693 1458.97 63.421 Q1462.5 59.5726 1462.5 52.9291 L1462.5 27.2059 L1469.95 27.2059 L1469.95 72.576 L1462.5 72.576 L1462.5 65.6084 Q1459.78 69.7404 1456.18 71.7658 Q1452.61 73.7508 1447.87 73.7508 Q1440.05 73.7508 1436 68.8897 Q1431.95 64.0286 1431.95 54.671 M1450.71 26.1121 L1450.71 26.1121 Z" fill="#000000" fill-rule="evenodd" fill-opacity="1" /><path clip-path="url(#clip580)" d="M1511.59 34.1734 Q1510.34 33.4443 1508.84 33.1202 Q1507.38 32.7556 1505.6 32.7556 Q1499.28 32.7556 1495.88 36.8875 Q1492.51 40.9789 1492.51 48.6757 L1492.51 72.576 L1485.02 72.576 L1485.02 27.2059 L1492.51 27.2059 L1492.51 34.2544 Q1494.86 30.1225 1498.63 28.1376 Q1502.4 26.1121 1507.78 26.1121 Q1508.55 26.1121 1509.49 26.2337 Q1510.42 26.3147 1511.55 26.5172 L1511.59 34.1734 Z" fill="#000000" fill-rule="evenodd" fill-opacity="1" /><path clip-path="url(#clip580)" d="M1514.06 27.2059 L1521.96 27.2059 L1536.14 65.2844 L1550.32 27.2059 L1558.22 27.2059 L1541.2 72.576 L1531.08 72.576 L1514.06 27.2059 Z" fill="#000000" fill-rule="evenodd" fill-opacity="1" /><path clip-path="url(#clip580)" d="M1607.32 48.0275 L1607.32 51.6733 L1573.04 51.6733 Q1573.53 59.3701 1577.66 63.421 Q1581.84 67.4314 1589.25 67.4314 Q1593.54 67.4314 1597.55 66.3781 Q1601.6 65.3249 1605.57 63.2184 L1605.57 70.267 Q1601.56 71.9684 1597.35 72.8596 Q1593.14 73.7508 1588.8 73.7508 Q1577.95 73.7508 1571.59 67.4314 Q1565.27 61.1119 1565.27 50.3365 Q1565.27 39.1965 1571.26 32.6746 Q1577.3 26.1121 1587.51 26.1121 Q1596.66 26.1121 1601.97 32.0264 Q1607.32 37.9003 1607.32 48.0275 M1599.86 45.84 Q1599.78 39.7232 1596.42 36.0774 Q1593.1 32.4315 1587.59 32.4315 Q1581.35 32.4315 1577.58 35.9558 Q1573.86 39.4801 1573.29 45.8805 L1599.86 45.84 Z" fill="#000000" fill-rule="evenodd" fill-opacity="1" /><polyline clip-path="url(#clip582)" style="stroke:#0000ff; stroke-linecap:butt; stroke-linejoin:round; stroke-width:8; stroke-opacity:1; fill:none" points="
  302.846,210.894 306.835,507.213 310.823,769.573 314.811,1000.47 318.8,1187.84 322.788,1335.23 326.777,1446.62 330.765,1527.77 334.753,1590.37 338.742,1639.63 
  342.73,1676.67 346.718,1704.7 350.707,1727.56 354.695,1745.23 358.684,1758.07 362.672,1769.9 366.66,1780.96 370.649,1789.77 374.637,1798.11 378.626,1806.64 
  382.614,1814.27 386.602,1820.82 390.591,1827.12 394.579,1833.79 398.567,1840.05 402.556,1845.46 406.544,1850.9 410.533,1856.56 414.521,1861.63 418.509,1866.07 
  422.498,1870.6 426.486,1875.13 430.475,1879.2 434.463,1883.09 438.451,1887.01 442.44,1890.76 446.428,1894.31 450.416,1897.75 454.405,1901.15 458.393,1904.34 
  462.382,1907.39 466.37,1910.44 470.358,1913.34 474.347,1916.06 478.335,1918.75 482.324,1921.36 486.312,1923.78 490.3,1926.15 494.289,1928.49 498.277,1930.76 
  502.265,1932.95 506.254,1935.12 510.242,1937.26 514.231,1939.32 518.219,1941.33 522.207,1943.28 526.196,1945.16 530.184,1946.99 534.173,1948.75 538.161,1950.46 
  542.149,1952.13 546.138,1953.76 550.126,1955.33 554.114,1956.88 558.103,1958.38 562.091,1959.83 566.08,1961.26 570.068,1962.66 574.056,1964.02 578.045,1965.36 
  582.033,1966.68 586.022,1967.97 590.01,1969.23 593.998,1970.48 597.987,1971.71 601.975,1972.91 605.963,1974.11 609.952,1975.28 613.94,1976.44 617.929,1977.58 
  621.917,1978.71 625.905,1979.81 629.894,1980.91 633.882,1981.99 637.871,1983.07 641.859,1984.13 645.847,1985.18 649.836,1986.22 653.824,1987.25 657.812,1988.25 
  661.801,1989.25 665.789,1990.23 669.778,1991.19 673.766,1992.14 677.754,1993.08 681.743,1993.99 685.731,1994.89 689.719,1995.77 693.708,1996.64 697.696,1997.5 
  701.685,1998.35 705.673,1999.19 709.661,2000.01 713.65,2000.83 717.638,2001.63 721.627,2002.42 725.615,2003.2 729.603,2003.96 733.592,2004.72 737.58,2005.47 
  741.568,2006.22 745.557,2006.97 749.545,2007.72 753.534,2008.45 757.522,2009.17 761.51,2009.87 765.499,2010.56 769.487,2011.24 773.476,2011.91 777.464,2012.58 
  781.452,2013.25 785.441,2013.92 789.429,2014.59 793.417,2015.26 797.406,2015.92 801.394,2016.57 805.383,2017.2 809.371,2017.83 813.359,2018.44 817.348,2019.05 
  821.336,2019.65 825.325,2020.27 829.313,2020.88 833.301,2021.52 837.29,2022.15 841.278,2022.77 845.266,2023.35 849.255,2023.91 853.243,2024.47 857.232,2025.02 
  861.22,2025.62 865.208,2026.23 869.197,2026.84 873.185,2027.41 877.174,2027.96 881.162,2028.49 885.15,2029.01 889.139,2029.57 893.127,2030.15 897.115,2030.73 
  901.104,2031.29 905.092,2031.81 909.081,2032.32 913.069,2032.83 917.057,2033.35 921.046,2033.88 925.034,2034.4 929.023,2034.92 933.011,2035.43 936.999,2035.93 
  940.988,2036.41 944.976,2036.89 948.964,2037.35 952.953,2037.8 956.941,2038.24 960.93,2038.68 964.918,2039.14 968.906,2039.66 972.895,2040.2 976.883,2040.74 
  980.872,2041.23 984.86,2041.68 988.848,2042.1 992.837,2042.51 996.825,2042.97 1000.81,2043.46 1004.8,2043.95 1008.79,2044.42 1012.78,2044.86 1016.77,2045.29 
  1020.76,2045.71 1024.74,2046.13 1028.73,2046.56 1032.72,2047 1036.71,2047.46 1040.7,2047.92 1044.69,2048.37 1048.67,2048.79 1052.66,2049.21 1056.65,2049.6 
  1060.64,2050 1064.63,2050.38 1068.62,2050.75 1072.6,2051.12 1076.59,2051.51 1080.58,2051.93 1084.57,2052.39 1088.56,2052.86 1092.55,2053.3 1096.53,2053.69 
  1100.52,2054.04 1104.51,2054.37 1108.5,2054.72 1112.49,2055.12 1116.48,2055.53 1120.46,2055.96 1124.45,2056.36 1128.44,2056.74 1132.43,2057.08 1136.42,2057.41 
  1140.41,2057.73 1144.4,2058.06 1148.38,2058.45 1152.37,2058.84 1156.36,2059.25 1160.35,2059.64 1164.34,2059.98 1168.33,2060.3 1172.31,2060.61 1176.3,2060.93 
  1180.29,2061.25 1184.28,2061.6 1188.27,2061.98 1192.26,2062.37 1196.24,2062.74 1200.23,2063.07 1204.22,2063.39 1208.21,2063.68 1212.2,2063.96 1216.19,2064.23 
  1220.17,2064.54 1224.16,2064.89 1228.15,2065.25 1232.14,2065.63 1236.13,2065.99 1240.12,2066.32 1244.1,2066.61 1248.09,2066.89 1252.08,2067.15 1256.07,2067.43 
  1260.06,2067.74 1264.05,2068.07 1268.04,2068.42 1272.02,2068.76 1276.01,2069.07 1280,2069.36 1283.99,2069.63 1287.98,2069.9 1291.97,2070.15 1295.95,2070.4 
  1299.94,2070.65 1303.93,2070.95 1307.92,2071.24 1311.91,2071.57 1315.9,2071.92 1319.88,2072.25 1323.87,2072.54 1327.86,2072.81 1331.85,2073.07 1335.84,2073.32 
  1339.83,2073.57 1343.81,2073.81 1347.8,2074.09 1351.79,2074.39 1355.78,2074.7 1359.77,2075 1363.76,2075.3 1367.74,2075.59 1371.73,2075.86 1375.72,2076.13 
  1379.71,2076.39 1383.7,2076.65 1387.69,2076.89 1391.68,2077.12 1395.66,2077.33 1399.65,2077.52 1403.64,2077.72 1407.63,2077.94 1411.62,2078.19 1415.61,2078.5 
  1419.59,2078.87 1423.58,2079.2 1427.57,2079.48 1431.56,2079.7 1435.55,2079.89 1439.54,2080.07 1443.52,2080.27 1447.51,2080.52 1451.5,2080.81 1455.49,2081.12 
  1459.48,2081.41 1463.47,2081.67 1467.45,2081.9 1471.44,2082.11 1475.43,2082.3 1479.42,2082.48 1483.41,2082.67 1487.4,2082.87 1491.38,2083.1 1495.37,2083.35 
  1499.36,2083.64 1503.35,2083.93 1507.34,2084.2 1511.33,2084.43 1515.31,2084.63 1519.3,2084.8 1523.29,2084.97 1527.28,2085.14 1531.27,2085.33 1535.26,2085.55 
  1539.25,2085.81 1543.23,2086.1 1547.22,2086.4 1551.21,2086.65 1555.2,2086.85 1559.19,2087.02 1563.18,2087.16 1567.16,2087.3 1571.15,2087.49 1575.14,2087.71 
  1579.13,2088 1583.12,2088.29 1587.11,2088.55 1591.09,2088.76 1595.08,2088.94 1599.07,2089.11 1603.06,2089.28 1607.05,2089.46 1611.04,2089.66 1615.02,2089.88 
  1619.01,2090.11 1623,2090.35 1626.99,2090.59 1630.98,2090.81 1634.97,2091.01 1638.95,2091.2 1642.94,2091.38 1646.93,2091.54 1650.92,2091.73 1654.91,2091.91 
  1658.9,2092.1 1662.89,2092.3 1666.87,2092.5 1670.86,2092.73 1674.85,2092.94 1678.84,2093.15 1682.83,2093.34 1686.82,2093.51 1690.8,2093.68 1694.79,2093.85 
  1698.78,2094.02 1702.77,2094.2 1706.76,2094.39 1710.75,2094.56 1714.73,2094.74 1718.72,2094.91 1722.71,2095.1 1726.7,2095.27 1730.69,2095.46 1734.68,2095.63 
  1738.66,2095.82 1742.65,2096.01 1746.64,2096.24 1750.63,2096.48 1754.62,2096.7 1758.61,2096.88 1762.59,2097.02 1766.58,2097.15 1770.57,2097.25 1774.56,2097.4 
  1778.55,2097.53 1782.54,2097.78 1786.53,2098.05 1790.51,2098.32 1794.5,2098.54 1798.49,2098.73 1802.48,2098.91 1806.47,2099.04 1810.46,2099.17 1814.44,2099.28 
  1818.43,2099.42 1822.42,2099.57 1826.41,2099.75 1830.4,2099.88 1834.39,2100.08 1838.37,2100.35 1842.36,2100.58 1846.35,2100.82 1850.34,2101.01 1854.33,2101.23 
  1858.32,2101.37 1862.3,2101.55 1866.29,2101.69 1870.28,2101.85 1874.27,2101.99 1878.26,2102.13 1882.25,2102.24 1886.23,2102.39 1890.22,2102.56 1894.21,2102.72 
  1898.2,2102.86 1902.19,2103.02 1906.18,2103.28 1910.16,2103.47 1914.15,2103.73 1918.14,2103.9 1922.13,2104.1 1926.12,2104.25 1930.11,2104.38 1934.1,2104.48 
  1938.08,2104.62 1942.07,2104.75 1946.06,2104.92 1950.05,2105.09 1954.04,2105.31 1958.03,2105.52 1962.01,2105.72 1966,2105.91 1969.99,2106.06 1973.98,2106.19 
  1977.97,2106.29 1981.96,2106.36 1985.94,2106.36 1989.93,2106.41 1993.92,2106.44 1997.91,2106.56 2001.9,2106.62 2005.89,2106.86 2009.87,2107.28 2013.86,2107.67 
  2017.85,2107.96 2021.84,2108.1 2025.83,2108.17 2029.82,2108.19 2033.8,2108.28 2037.79,2108.43 2041.78,2108.64 2045.77,2108.9 2049.76,2109.13 2053.75,2109.3 
  2057.74,2109.44 2061.72,2109.56 2065.71,2109.68 2069.7,2109.81 2073.69,2109.95 2077.68,2110.08 2081.67,2110.2 2085.65,2110.3 2089.64,2110.38 2093.63,2110.49 
  2097.62,2110.6 2101.61,2110.8 2105.6,2110.99 2109.58,2111.19 2113.57,2111.37 2117.56,2111.49 2121.55,2111.58 2125.54,2111.66 2129.53,2111.79 2133.51,2111.93 
  2137.5,2112.12 2141.49,2112.3 2145.48,2112.5 2149.47,2112.65 2153.46,2112.79 2157.44,2112.89 2161.43,2112.97 2165.42,2113.02 2169.41,2113.05 2173.4,2113.07 
  2177.39,2113.11 2181.38,2113.14 2185.36,2113.19 2189.35,2113.18 2193.34,2113.4 2197.33,2113.65 2201.32,2114.06 2205.31,2114.39 2209.29,2114.57 2213.28,2114.59 
  2217.27,2114.56 2221.26,2114.58 2225.25,2114.63 2229.24,2114.78 2233.22,2114.97 2237.21,2115.16 2241.2,2115.37 2245.19,2115.55 2249.18,2115.71 2253.17,2115.8 
  2257.15,2115.86 2261.14,2115.86 2265.13,2115.92 2269.12,2116.08 2273.11,2116.29 2277.1,2116.52 2281.08,2116.72 2285.07,2116.86 2289.06,2116.92 2293.05,2116.96 
  
  "/>
</svg>
